<svg xmlns="http://www.w3.org/2000/svg" xmlns:xlink="http://www.w3.org/1999/xlink" xmlns:lucid="lucid" width="901" height="541"><g transform="translate(-399.5 -619.5)" lucid:page-tab-id="0_0"><path d="M0 0h1870.87v1322.84H0z" fill="#fff"/><path d="M420 906a6 6 0 0 1 6-6h428a6 6 0 0 1 6 6v228a6 6 0 0 1-6 6H426a6 6 0 0 1-6-6z" stroke="#3a414a" fill="#edf5ff"/><use xlink:href="#a" transform="matrix(1,0,0,1,432,912) translate(0 211.7284977777778)"/><path d="M600 920h80v80h-80v-80z" stroke="#fff" stroke-opacity="0" stroke-width="2" fill="#d86613"/><path d="M664.53 986.67H651.4c-.44 0-.78-.22-.95-.6l-18.6-38.87h-7.86c-.6 0-1.08-.48-1.08-1.07V934.4c0-.6.47-1.07 1.07-1.07h16.42c.43 0 .77.22.94.6l18.52 38.87h4.65c.6 0 1.07.48 1.07 1.07v11.73c0 .6-.47 1.07-1.07 1.07zm-12.46-2.14h11.4v-9.6h-4.27c-.43 0-.77-.2-.94-.58l-18.52-38.88h-14.68v9.6h7.47c.42 0 .76.2.98.58z" stroke="#fff" stroke-opacity="0" stroke-width="2" fill="#fff"/><path d="M629.3 986.67h-13.85c-.38 0-.7-.2-.92-.5-.2-.35-.2-.74-.05-1.06L629 954.8c.16-.4.54-.6.94-.6.43 0 .78.2.97.57l6.95 14.3c.16.28.16.6 0 .93l-7.58 16c-.14.4-.52.67-.97.67zm-12.15-2.15h11.5l7.05-14.9-5.74-11.92z" stroke="#fff" stroke-opacity="0" stroke-width="2" fill="#fff"/><path d="M440 920h80v80h-80v-80z" stroke="#000" stroke-opacity="0" fill="#cd2264"/><path d="M463.37 977.32c2.73-1.73 3.65-5.25 2.2-8.18-1.62-3.04-5.44-4.3-8.5-2.7l-3.72-6.38 6.14-10.68-1.86-1.08-6.44 11.17c-.23.36-.23.7 0 1.07l4.12 7.17c-1.16 1.26-1.74 2.7-1.74 4.37 0 3.46 2.78 6.32 6.26 6.32.58 0 1.04-.07 1.56-.2l3.36 5.87c.23.35.58.53.93.53h13.26v-2.1h-12.63zm-3.53-1.02c-2.26 0-4.17-1.9-4.17-4.17 0-2.33 1.9-4.18 4.17-4.18 2.3 0 4.17 1.85 4.17 4.17 0 2.27-1.85 4.12-4.16 4.12zm48.96-16.83l-4.06-7.05c2.38-1.73 3.24-4.77 2.03-7.52-1.34-3.16-5.04-4.66-8.23-3.28l-3.3-5.73c-.23-.3-.58-.55-.93-.55h-13.26v2.15h12.63l3.07 5.3c-1.85 1.74-2.55 4.2-1.8 6.58 1.05 3.34 4.58 5.2 7.94 4.12l3.77 6.5-5.33 9.2 1.86 1.07 5.62-9.73c.23-.36.23-.7 0-1.07zm-7.77-7.88c-2.32 0-4.17-1.92-4.17-4.2 0-2.32 1.85-4.17 4.17-4.17 2.26 0 4.12 1.85 4.12 4.18 0 2.28-1.86 4.2-4.12 4.2zm-6.43 25.66c-.8 0-1.5.12-2.26.42l-4.52-7.64-.23.12 5.55-9.56c.23-.36.23-.77 0-1.07l-6.08-10.75c-.23-.3-.58-.54-.93-.54H474.9l-4.1-7.04c1.44-1.2 2.2-2.87 2.2-4.78 0-3.46-2.85-6.26-6.33-6.26-3.47 0-6.25 2.8-6.25 6.32 0 3.47 2.84 6.27 6.3 6.27.82 0 1.52-.12 2.27-.42l3.82 6.5-6.1 10.64c-.22.36-.22.7 0 1.07l6.15 10.7c.24.3.52.47.93.47h12.34c.06.07.18.07.23 0l4.18 7.1c-1.45 1.27-2.15 2.88-2.15 4.8 0 3.45 2.78 6.26 6.26 6.26 3.47 0 6.3-2.8 6.3-6.33-.04-3.46-2.83-6.27-6.3-6.2zm-27.87-36.66c-2.3 0-4.17-1.9-4.1-4.18 0-2.32 1.9-4.18 4.16-4.18 2.3.06 4.16 1.9 4.16 4.18-.06 2.33-1.9 4.18-4.23 4.18zm18.77 29.02h-11.06l-5.56-9.62 5.56-9.6h11.06l5.57 9.6zm9.16 18.1c-2.32 0-4.17-1.86-4.17-4.13 0-2.34 1.84-4.2 4.16-4.2 2.32 0 4.17 1.86 4.17 4.2 0 2.26-1.85 4.1-4.17 4.1z" stroke="#000" stroke-opacity="0" fill="#fff"/><path d="M600 1040h80v80h-80v-80z" stroke="#fff" stroke-opacity="0" stroke-width="2" fill="#d6242d"/><path d="M652.1 1093.62l1.5-1.5 12.75 12.74-1.5 1.52-12.76-12.76zM613.64 1055.16l1.5-1.5 14.15 14.14-1.5 1.5-14.15-14.14zM616.84 1101.7l7.47-7.46 1.52 1.5-7.47 7.47-1.5-1.5zM654.18 1064.36l7.47-7.46 1.5 1.5-7.47 7.47-1.5-1.5z" stroke="#fff" stroke-opacity="0" stroke-width="1.41" fill="#fff"/><path d="M664.5 1078.95c-.22-5-1.67-9.22-4.6-13.27l-1.74 1.27c2.66 3.67 4 7.46 4.2 12h-2.14v2.13h2.14c-.2 4.56-1.5 8.38-4.2 12.1l1.73 1.22c2.94-4.08 4.4-8.3 4.6-13.32h2.12v-2.16zM626.9 1061.9c3.68-2.68 7.48-4 12.03-4.2v2.06h2.14v-2.06c4.55.2 8.35 1.52 12.03 4.2l1.3-1.74c-4.1-2.95-8.3-4.4-13.33-4.6v-2.2h-2.14v2.2c-5.04.2-9.24 1.65-13.33 4.6zM653.1 1098.22c-3.68 2.66-7.48 4-12.03 4.2v-2.15h-2.14v2.14c-4.55-.2-8.35-1.52-12.03-4.18l-1.3 1.72c4.1 2.96 8.3 4.4 13.33 4.6v2.14h2.14v-2.13c5.04-.2 9.24-1.65 13.33-4.6zM620.1 1094.4l1.74-1.26c-2.7-3.68-4-7.5-4.2-12.07h2.14v-2.13h-2.14c.2-4.54 1.54-8.33 4.2-12l-1.73-1.28c-2.93 4.06-4.38 8.28-4.6 13.28h-2.12v2.13h2.13c.2 5.03 1.66 9.25 4.6 13.33zM645.23 1065.86c-1.54-1.26-3.25-1.87-5.23-1.84-4.12 0-7.47 2.9-7.47 6.5v5.22h-2.13c-.6 0-1.07.5-1.07 1.07v14.96c0 .28.1.54.32.75.2.2.45.32.75.32h19.2c.6 0 1.07-.5 1.07-1.06v-14.95c0-.28-.1-.5-.3-.7-.22-.24-.47-.36-.77-.36h-2.13v-5.2c-.02-1.88-.8-3.5-2.24-4.68zm-10.56 4.67c0-2.42 2.4-4.38 5.33-4.38 1.45-.03 2.7.4 3.84 1.33.96.77 1.47 1.8 1.5 3.05v5.2H634.7zm13.86 10.57h-3.2v2.13h3.2v2.13h-3.2v2.13h3.2v3.2h-17.06v-12.83h17.06z" stroke="#fff" stroke-opacity="0" stroke-width="2" fill="#fff"/><path d="M638.93 1085.6v2.96h2.14v-2.95c.9-.3 1.54-.95 1.87-1.87.6-1.62-.25-3.4-1.87-4-1.63-.58-3.42.26-4 1.88-.6 1.63.24 3.42 1.86 4zm1.07-4.06c.64 0 1.16.5 1.16 1.14 0 .63-.5 1.15-1.14 1.16-.63 0-1.16-.5-1.16-1.14v-.04c0-.62.5-1.12 1.14-1.12z" stroke="#fff" stroke-opacity="0" stroke-width="2" fill="#fff"/><path d="M798.66 923.62l38.66 5.74v3.4c0 5.02-17.32 9.1-38.66 9.1-21.34 0-38.66-4.08-38.66-9.1v-3.7z" fill="#8c3123"/><path d="M798.68 948.1c16.13 0 29.96-2.37 35.72-5.68l1.92-3.2.77-2.92v3.63l-12.7 54c0 3.4-11.5 6.06-25.72 6.06-14.2 0-25.73-2.68-25.73-6.06l-12.68-54v-3.57l2.92 6.17c5.83 3.25 19.5 5.55 35.48 5.55z" fill="#8c3123"/><path d="M798.67 920c21.34 0 38.66 4.08 38.66 9.08s-17.32 9.05-38.66 9.05c-21.34 0-38.66-4-38.66-9.05 0-5.04 17.33-9.08 38.67-9.08z" fill="#e05243"/><path d="M798.66 944.4c19.9 0 36.27-3.48 38.42-8.04l-12.68 54c0 3.37-11.52 6.07-25.74 6.07-14.2 0-25.74-2.7-25.74-6.06l-12.67-54c2.15 4.55 18.5 8.04 38.4 8.04z" fill="#e05243"/><path d="M789.57 949.58h16.74v16.64h-16.73v-16.64zM784.5 972.1c4.56 0 8.26 3.7 8.26 8.22 0 4.52-3.7 8.2-8.26 8.2-4.55 0-8.25-3.67-8.25-8.2 0-4.53 3.7-8.2 8.25-8.2zM819.2 988.14h-16.53l8.27-15.3 8.27 15.3z" fill="#fff"/><path d="M699.33 748c0 6.63-26.86 12-60 12-33.13 0-60-5.37-60-12v-96c0-6.63 26.87-12 60-12 33.14 0 60 5.37 60 12z" stroke="#3a414a" fill="#e3fae3"/><path d="M699.33 652c0 6.63-26.86 12-60 12-33.13 0-60-5.37-60-12" stroke="#3a414a" fill="none"/><use xlink:href="#b" transform="matrix(1,0,0,1,584.3333333333334,669) translate(10 33.90277777777778)"/><use xlink:href="#c" transform="matrix(1,0,0,1,584.3333333333334,669) translate(48.20987654320988 33.90277777777778)"/><use xlink:href="#d" transform="matrix(1,0,0,1,584.3333333333334,669) translate(34.691358024691354 60.56944444444445)"/><path d="M579.33 766a6 6 0 0 1 6-6h108a6 6 0 0 1 6 6v28a6 6 0 0 1-6 6h-108a6 6 0 0 1-6-6z" stroke="#3a414a" fill="#e3fae3"/><use xlink:href="#e" transform="matrix(1,0,0,1,591.3333333333334,772) translate(30.098765432098766 17.77777777777778)"/><path d="M640 1016.38v23.12" stroke="#3a414a" fill="none"/><path d="M640 1001.62l4.63 14.26h-9.26z" stroke="#3a414a" fill="#3a414a"/><path d="M640.5 1040h-1v-.5h1z" stroke="#3a414a" stroke-width=".05" fill="#3a414a"/><path d="M520.5 960h63.12" stroke="#3a414a" fill="none"/><path d="M520.5 960.5h-.5v-1h.5z" stroke="#3a414a" stroke-width=".05" fill="#3a414a"/><path d="M598.38 960l-14.26 4.63v-9.26z" stroke="#3a414a" fill="#3a414a"/><path d="M680.5 960h68.1" stroke="#3a414a" fill="none"/><path d="M680.5 960.5h-.5v-1h.5z" stroke="#3a414a" stroke-width=".05" fill="#3a414a"/><path d="M763.36 960l-14.27 4.63v-9.26z" stroke="#3a414a" fill="#3a414a"/><path d="M738.67 646a6 6 0 0 1 6-6h108a6 6 0 0 1 6 6v128a6 6 0 0 1-6 6h-108a6 6 0 0 1-6-6z" stroke="#3a414a" fill="#edf5ff"/><use xlink:href="#f" transform="matrix(1,0,0,1,750.6666666666667,652) translate(0 111.41297777777777)"/><path d="M758.67 660h80v80h-80v-80z" stroke="#fff" stroke-opacity="0" stroke-width="2" fill="#d86613"/><path d="M823.2 726.67h-13.15c-.42 0-.76-.22-.93-.6l-18.6-38.87h-7.86c-.6 0-1.07-.48-1.07-1.07V674.4c0-.6.46-1.07 1.06-1.07h16.43c.4 0 .75.22.93.6l18.52 38.87h4.65c.6 0 1.07.48 1.07 1.07v11.73c0 .6-.47 1.07-1.07 1.07zm-12.46-2.14h11.4v-9.6h-4.27c-.43 0-.77-.2-.94-.58l-18.53-38.88h-14.68v9.6h7.47c.42 0 .76.2.97.58z" stroke="#fff" stroke-opacity="0" stroke-width="2" fill="#fff"/><path d="M787.97 726.67h-13.85c-.38 0-.7-.2-.92-.5-.22-.35-.22-.74-.05-1.06l14.5-30.3c.18-.4.56-.6.96-.6.43 0 .8.2.98.57l6.93 14.3c.18.28.18.6 0 .93l-7.56 16c-.14.4-.52.67-.97.67zm-12.15-2.15h11.5l7.05-14.9-5.74-11.92z" stroke="#fff" stroke-opacity="0" stroke-width="2" fill="#fff"/><path d="M798.67 740.5v163.12" stroke="#3a414a" fill="none"/><path d="M799.17 740.5h-1v-.5h1z" stroke="#3a414a" stroke-width=".05" fill="#3a414a"/><path d="M798.67 918.38l-4.64-14.26h9.27z" stroke="#3a414a" fill="#3a414a"/><path d="M640 919.5V816.88" stroke="#3a414a" fill="none"/><path d="M640.5 920h-1v-.5h1z" stroke="#3a414a" stroke-width=".05" fill="#3a414a"/><path d="M640 802.12l4.63 14.26h-9.26z" stroke="#3a414a" fill="#3a414a"/><path d="M920 646a6 6 0 0 1 6-6h348a6 6 0 0 1 6 6v488a6 6 0 0 1-6 6H926a6 6 0 0 1-6-6z" stroke="#3a414a" fill="#fff"/><use xlink:href="#g" transform="matrix(1,0,0,1,932,652) translate(0 472.0496817777778)"/><path d="M940 666a6 6 0 0 1 6-6h108a6 6 0 0 1 6 6v28a6 6 0 0 1-6 6H946a6 6 0 0 1-6-6z" stroke="#3a414a" fill="#e3fae3"/><use xlink:href="#e" transform="matrix(1,0,0,1,952,672) translate(30.098765432098766 17.77777777777778)"/><path d="M1080 654.33a6 6 0 0 1 6-6h168a6 6 0 0 1 6 6v51.34a6 6 0 0 1-6 6h-168a6 6 0 0 1-6-6z" stroke="#000" stroke-opacity="0" fill="#fff" fill-opacity="0"/><use xlink:href="#h" transform="matrix(1,0,0,1,1085,653.3333333333334) translate(4.228395061728406 31.27777777777778)"/><use xlink:href="#i" transform="matrix(1,0,0,1,1085,653.3333333333334) translate(91.75925925925927 31.27777777777778)"/><path d="M970 731.67h60v60h-60v-60z" stroke="#000" stroke-opacity="0" fill="#cd2264"/><path d="M987.53 774.66c2.04-1.3 2.74-3.94 1.65-6.14-1.22-2.28-4.08-3.22-6.4-2l-2.77-4.8 4.62-8.02-1.4-.8-4.82 8.37c-.17.27-.17.53 0 .8l3.1 5.38c-.88.94-1.32 2-1.32 3.26 0 2.6 2.1 4.76 4.7 4.76.43 0 .78-.04 1.17-.13l2.52 4.38c.18.28.44.42.7.42h9.95v-1.57h-9.48zm-2.65-.76c-1.7 0-3.13-1.44-3.13-3.14 0-1.75 1.43-3.13 3.13-3.13 1.74 0 3.13 1.38 3.13 3.13 0 1.7-1.38 3.1-3.12 3.1zm36.72-12.63l-3.05-5.3c1.8-1.28 2.44-3.57 1.53-5.63-1-2.37-3.8-3.5-6.18-2.46l-2.47-4.3c-.18-.22-.44-.4-.7-.4h-9.95v1.6h9.48l2.3 4c-1.4 1.3-1.9 3.13-1.35 4.92.8 2.5 3.44 3.9 5.96 3.1l2.83 4.87-4 6.9 1.38.8 4.22-7.3c.17-.27.17-.53 0-.8zm-5.83-5.9c-1.74 0-3.13-1.45-3.13-3.15 0-1.74 1.4-3.13 3.13-3.13 1.7 0 3.1 1.38 3.1 3.12 0 1.7-1.4 3.14-3.1 3.14zm-4.82 19.24c-.6 0-1.13.1-1.7.32l-3.38-5.73-.18.08 4.16-7.16c.18-.27.18-.58 0-.8l-4.56-8.07c-.17-.22-.43-.4-.7-.4h-8.42l-3.1-5.28c1.1-.9 1.66-2.15 1.66-3.6 0-2.58-2.13-4.7-4.73-4.7-2.6 0-4.7 2.12-4.7 4.76 0 2.6 2.14 4.7 4.75 4.7.6 0 1.13-.1 1.7-.3l2.86 4.87-4.55 7.97c-.17.27-.17.53 0 .8l4.6 8.02c.18.2.4.35.7.35h9.26c.05.04.14.04.18 0l3.13 5.32c-1.08.95-1.6 2.15-1.6 3.6 0 2.58 2.1 4.7 4.7 4.7s4.73-2.12 4.73-4.76c-.04-2.58-2.13-4.7-4.74-4.64zm-20.9-27.48c-1.74 0-3.13-1.43-3.1-3.14 0-1.74 1.45-3.13 3.14-3.13 1.73.04 3.12 1.43 3.12 3.13-.04 1.75-1.43 3.14-3.17 3.14zm14.08 21.76h-8.3l-4.17-7.2 4.17-7.22h8.3l4.17 7.2zm6.86 13.57c-1.75 0-3.13-1.4-3.13-3.1 0-1.74 1.38-3.13 3.12-3.13 1.73 0 3.12 1.4 3.12 3.14 0 1.7-1.4 3.1-3.13 3.1z" stroke="#000" stroke-opacity="0" fill="#fff"/><path d="M1080 734.33a6 6 0 0 1 6-6h168a6 6 0 0 1 6 6v51.34a6 6 0 0 1-6 6h-168a6 6 0 0 1-6-6z" stroke="#000" stroke-opacity="0" fill="#fff" fill-opacity="0"/><use xlink:href="#j" transform="matrix(1,0,0,1,1085,733.3333333333721) translate(44.29012345679012 21.15277777777778)"/><use xlink:href="#k" transform="matrix(1,0,0,1,1085,733.3333333333721) translate(24.56790123456789 47.81944444444444)"/><path d="M970 823.33h60v60h-60v-60z" stroke="#fff" stroke-opacity="0" stroke-width="2" fill="#d86613"/><path d="M1018.4 873.33h-9.86c-.32 0-.57-.16-.7-.44l-13.96-29.17h-5.9c-.44 0-.8-.36-.8-.8v-8.8c0-.44.36-.8.8-.8h12.34c.3 0 .57.16.7.44l13.9 29.16h3.48c.45 0 .8.36.8.8v8.8c0 .44-.35.8-.8.8zm-9.35-1.6h8.55v-7.2h-3.2c-.32 0-.58-.16-.7-.44l-13.9-29.17h-11v7.2h5.6c.3 0 .57.16.73.44z" stroke="#fff" stroke-opacity="0" stroke-width="2" fill="#fff"/><path d="M991.98 873.33h-10.4c-.28 0-.52-.14-.68-.36-.16-.27-.16-.56-.04-.8l10.9-22.73c.1-.3.4-.47.7-.47.3 0 .58.17.72.44l5.2 10.73c.13.22.13.46 0 .7l-5.68 12c-.1.3-.4.5-.72.5zm-9.12-1.6h8.62l5.3-11.2-4.3-8.93z" stroke="#fff" stroke-opacity="0" stroke-width="2" fill="#fff"/><path d="M1080 814.33a6 6 0 0 1 6-6h168a6 6 0 0 1 6 6v51.34a6 6 0 0 1-6 6h-168a6 6 0 0 1-6-6z" stroke="#000" stroke-opacity="0" fill="#fff" fill-opacity="0"/><use xlink:href="#l" transform="matrix(1,0,0,1,1085,813.3333333334109) translate(16.944444444444443 31.27777777777778)"/><use xlink:href="#m" transform="matrix(1,0,0,1,1085,813.3333333334109) translate(72.87037037037035 31.27777777777778)"/><path d="M970 915h60v60h-60v-60z" stroke="#fff" stroke-opacity="0" stroke-width="2" fill="#d6242d"/><path d="M1009.07 955.22l1.13-1.14 9.56 9.57-1.13 1.13-9.56-9.56zM980.23 926.37l1.13-1.13 10.6 10.6-1.12 1.14-10.6-10.6zM982.63 961.28l5.6-5.6 1.13 1.13-5.6 5.6-1.13-1.12zM1010.63 933.27l5.6-5.6 1.13 1.13-5.6 5.6-1.13-1.13z" stroke="#fff" stroke-opacity="0" stroke-width="1.41" fill="#fff"/><path d="M1018.37 944.2c-.16-3.73-1.25-6.9-3.45-9.94l-1.3.95c2 2.77 3 5.6 3.15 9h-1.6v1.6h1.6c-.14 3.43-1.13 6.3-3.15 9.07l1.3.93c2.2-3.06 3.3-6.22 3.45-10h1.6v-1.6zM990.17 931.42c2.77-2 5.62-3 9.03-3.15v1.55h1.6v-1.55c3.4.15 6.26 1.14 9.03 3.15l.97-1.3c-3.07-2.2-6.22-3.3-10-3.45v-1.65h-1.6v1.65c-3.78.14-6.93 1.24-10 3.45zM1009.83 958.66c-2.77 2-5.62 3-9.03 3.15v-1.6h-1.6v1.6c-3.4-.14-6.26-1.14-9.03-3.14l-.97 1.3c3.07 2.2 6.22 3.3 10 3.45v1.6h1.6v-1.6c3.78-.14 6.93-1.23 10-3.44zM985.08 955.8l1.3-.95c-2-2.76-3-5.62-3.15-9.05h1.6v-1.6h-1.6c.16-3.4 1.15-6.25 3.15-9l-1.3-.95c-2.2 3.04-3.3 6.2-3.45 9.96h-1.6v1.6h1.6c.14 3.77 1.24 6.94 3.45 10zM1003.92 934.4c-1.15-.95-2.43-1.4-3.92-1.38-3.1 0-5.6 2.18-5.6 4.88v3.9h-1.6c-.45 0-.8.37-.8.8v11.22c0 .2.08.4.24.56.14.15.34.24.56.24h14.4c.45 0 .8-.37.8-.8v-11.2c0-.23-.08-.4-.22-.55-.16-.18-.36-.26-.58-.26h-1.6v-3.9c-.02-1.4-.6-2.62-1.68-3.5zm-7.92 3.5c0-1.82 1.8-3.3 4-3.3 1.1 0 2.03.32 2.88 1 .72.6 1.1 1.37 1.14 2.3v3.9h-8zm10.4 7.93h-2.4v1.6h2.4v1.6h-2.4v1.6h2.4v2.4h-12.8v-9.63h12.8z" stroke="#fff" stroke-opacity="0" stroke-width="2" fill="#fff"/><path d="M999.2 949.2v2.22h1.6v-2.2c.68-.26 1.16-.74 1.4-1.42.44-1.2-.18-2.56-1.4-3-1.22-.44-2.56.2-3 1.4-.44 1.22.18 2.57 1.4 3zm.8-3.05c.48 0 .87.38.87.86s-.38.88-.86.88c-.46 0-.85-.38-.86-.86V947c0-.47.4-.85.86-.85z" stroke="#fff" stroke-opacity="0" stroke-width="2" fill="#fff"/><path d="M1080 917.67a6 6 0 0 1 6-6h168a6 6 0 0 1 6 6V969a6 6 0 0 1-6 6h-168a6 6 0 0 1-6-6z" stroke="#000" stroke-opacity="0" fill="#fff" fill-opacity="0"/><use xlink:href="#l" transform="matrix(1,0,0,1,1085,916.6666666667832) translate(19.413580246913583 31.27777777777778)"/><use xlink:href="#n" transform="matrix(1,0,0,1,1085,916.6666666667832) translate(75.33950617283949 31.27777777777778)"/><path d="M1000 1009.47l30 4.46v2.63c0 3.9-13.45 7.06-30 7.06-16.56 0-30-3.16-30-7.06v-2.86z" fill="#8c3123"/><path d="M1000 1028.46c12.52 0 23.25-1.83 27.72-4.4l1.5-2.47.6-2.28v2.8l-9.85 41.92c0 2.6-8.94 4.7-19.96 4.7-11.02 0-19.96-2.1-19.96-4.7l-9.83-41.9v-2.77l2.27 4.8c4.53 2.5 15.14 4.3 27.54 4.3z" fill="#8c3123"/><path d="M1000 1006.67c16.56 0 30 3.16 30 7.04 0 3.9-13.44 7.03-30 7.03-16.56 0-30-3.1-30-7.02 0-3.9 13.44-7.03 30-7.03z" fill="#e05243"/><path d="M1000 1025.6c15.44 0 28.13-2.7 29.8-6.24l-9.83 41.9c0 2.6-8.95 4.7-19.97 4.7-11.03 0-19.97-2.1-19.97-4.7l-9.84-41.9c1.66 3.54 14.36 6.25 29.8 6.25z" fill="#e05243"/><path d="M992.94 1029.62h13v12.9h-13v-12.9zM989 1047.1c3.55 0 6.42 2.85 6.42 6.36 0 3.52-2.87 6.37-6.4 6.37-3.54 0-6.4-2.85-6.4-6.37 0-3.5 2.86-6.36 6.4-6.36zM1015.94 1059.53h-12.83l6.42-11.87 6.42 11.87z" fill="#fff"/><path d="M1080 1012.67a6 6 0 0 1 6-6h168a6 6 0 0 1 6 6V1064a6 6 0 0 1-6 6h-168a6 6 0 0 1-6-6z" stroke="#000" stroke-opacity="0" fill="#fff" fill-opacity="0"/><g><use xlink:href="#o" transform="matrix(1,0,0,1,1085,1011.666666666822) translate(34.38271604938271 31.27777777777778)"/><use xlink:href="#p" transform="matrix(1,0,0,1,1085,1011.666666666822) translate(67.71604938271605 31.27777777777778)"/></g><defs><path fill="#3a414a" d="M169-182c-1-43-94-46-97-3 18 66 151 10 154 114 3 95-165 93-204 36-6-8-10-19-12-30l50-8c3 46 112 56 116 5-17-69-150-10-154-114-4-87 153-88 188-35 5 8 8 18 10 28" id="q"/><path fill="#3a414a" d="M110-194c64 0 96 36 96 99 0 64-35 99-97 99-61 0-95-36-95-99 0-62 34-99 96-99zm-1 164c35 0 45-28 45-65 0-40-10-65-43-65-34 0-45 26-45 65 0 36 10 65 43 65" id="r"/><path fill="#3a414a" d="M25 0v-261h50V0H25" id="s"/><path fill="#3a414a" d="M85 4C-2 5 27-109 22-190h50c7 57-23 150 33 157 60-5 35-97 40-157h50l1 190h-47c-2-12 1-28-3-38-12 25-28 42-61 42" id="t"/><path fill="#3a414a" d="M115-3C79 11 28 4 28-45v-112H4v-33h27l15-45h31v45h36v33H77v99c-1 23 16 31 38 25v30" id="u"/><path fill="#3a414a" d="M25-224v-37h50v37H25zM25 0v-190h50V0H25" id="v"/><path fill="#3a414a" d="M135-194c87-1 58 113 63 194h-50c-7-57 23-157-34-157-59 0-34 97-39 157H25l-1-190h47c2 12-1 28 3 38 12-26 28-41 61-42" id="w"/><g id="a"><use transform="matrix(0.06172839506172839,0,0,0.06172839506172839,0,0)" xlink:href="#q"/><use transform="matrix(0.06172839506172839,0,0,0.06172839506172839,14.814814814814813,0)" xlink:href="#r"/><use transform="matrix(0.06172839506172839,0,0,0.06172839506172839,28.33333333333333,0)" xlink:href="#s"/><use transform="matrix(0.06172839506172839,0,0,0.06172839506172839,34.50617283950617,0)" xlink:href="#t"/><use transform="matrix(0.06172839506172839,0,0,0.06172839506172839,48.02469135802469,0)" xlink:href="#u"/><use transform="matrix(0.06172839506172839,0,0,0.06172839506172839,55.37037037037037,0)" xlink:href="#v"/><use transform="matrix(0.06172839506172839,0,0,0.06172839506172839,61.54320987654321,0)" xlink:href="#r"/><use transform="matrix(0.06172839506172839,0,0,0.06172839506172839,75.06172839506172,0)" xlink:href="#w"/></g><path fill="#3a414a" d="M126-127c33 6 58 20 58 59 0 88-139 92-164 29-3-8-5-16-6-25l32-3c6 27 21 44 54 44 32 0 52-15 52-46 0-38-36-46-79-43v-28c39 1 72-4 72-42 0-27-17-43-46-43-28 0-47 15-49 41l-32-3c6-42 35-63 81-64 48-1 79 21 79 65 0 36-21 52-52 59" id="x"/><path fill="#3a414a" d="M114-163C36-179 61-72 57 0H25l-1-190h30c1 12-1 29 2 39 6-27 23-49 58-41v29" id="y"/><path fill="#3a414a" d="M85-194c31 0 48 13 60 33l-1-100h32l1 261h-30c-2-10 0-23-3-31C134-8 116 4 85 4 32 4 16-35 15-94c0-66 23-100 70-100zm9 24c-40 0-46 34-46 75 0 40 6 74 45 74 42 0 51-32 51-76 0-42-9-74-50-73" id="z"/><g id="b"><use transform="matrix(0.06172839506172839,0,0,0.06172839506172839,0,0)" xlink:href="#x"/><use transform="matrix(0.06172839506172839,0,0,0.06172839506172839,12.345679012345679,0)" xlink:href="#y"/><use transform="matrix(0.06172839506172839,0,0,0.06172839506172839,19.691358024691358,0)" xlink:href="#z"/></g><path fill="#3a414a" d="M30-248c87 1 191-15 191 75 0 78-77 80-158 76V0H30v-248zm33 125c57 0 124 11 124-50 0-59-68-47-124-48v98" id="A"/><path fill="#3a414a" d="M141-36C126-15 110 5 73 4 37 3 15-17 15-53c-1-64 63-63 125-63 3-35-9-54-41-54-24 1-41 7-42 31l-33-3c5-37 33-52 76-52 45 0 72 20 72 64v82c-1 20 7 32 28 27v20c-31 9-61-2-59-35zM48-53c0 20 12 33 32 33 41-3 63-29 60-74-43 2-92-5-92 41" id="B"/><path fill="#3a414a" d="M59-47c-2 24 18 29 38 22v24C64 9 27 4 27-40v-127H5v-23h24l9-43h21v43h35v23H59v120" id="C"/><path fill="#3a414a" d="M179-190L93 31C79 59 56 82 12 73V49c39 6 53-20 64-50L1-190h34L92-34l54-156h33" id="D"/><g id="c"><use transform="matrix(0.06172839506172839,0,0,0.06172839506172839,0,0)" xlink:href="#A"/><use transform="matrix(0.06172839506172839,0,0,0.06172839506172839,14.814814814814813,0)" xlink:href="#B"/><use transform="matrix(0.06172839506172839,0,0,0.06172839506172839,27.160493827160494,0)" xlink:href="#y"/><use transform="matrix(0.06172839506172839,0,0,0.06172839506172839,34.50617283950617,0)" xlink:href="#C"/><use transform="matrix(0.06172839506172839,0,0,0.06172839506172839,40.67901234567901,0)" xlink:href="#D"/></g><path fill="#3a414a" d="M127-220V0H93v-220H8v-28h204v28h-85" id="E"/><path fill="#3a414a" d="M100-194c62-1 85 37 85 99 1 63-27 99-86 99S16-35 15-95c0-66 28-99 85-99zM99-20c44 1 53-31 53-75 0-43-8-75-51-75s-53 32-53 75 10 74 51 75" id="F"/><path fill="#3a414a" d="M24 0v-261h32V0H24" id="G"/><g id="d"><use transform="matrix(0.06172839506172839,0,0,0.06172839506172839,0,0)" xlink:href="#E"/><use transform="matrix(0.06172839506172839,0,0,0.06172839506172839,11.049382716049381,0)" xlink:href="#F"/><use transform="matrix(0.06172839506172839,0,0,0.06172839506172839,23.39506172839506,0)" xlink:href="#F"/><use transform="matrix(0.06172839506172839,0,0,0.06172839506172839,35.74074074074074,0)" xlink:href="#G"/></g><path fill="#3a414a" d="M205 0l-28-72H64L36 0H1l101-248h38L239 0h-34zm-38-99l-47-123c-12 45-31 82-46 123h93" id="H"/><path fill="#3a414a" d="M33 0v-248h34V0H33" id="I"/><g id="e"><use transform="matrix(0.06172839506172839,0,0,0.06172839506172839,0,0)" xlink:href="#H"/><use transform="matrix(0.06172839506172839,0,0,0.06172839506172839,14.814814814814813,0)" xlink:href="#A"/><use transform="matrix(0.06172839506172839,0,0,0.06172839506172839,29.629629629629626,0)" xlink:href="#I"/></g><path fill="#3a414a" d="M24-248c120-7 223 5 221 122C244-46 201 0 124 0H24v-248zM76-40c74 7 117-18 117-86 0-67-45-88-117-82v168" id="J"/><path fill="#3a414a" d="M199 0l-22-63H83L61 0H9l90-248h61L250 0h-51zm-33-102l-36-108c-10 38-24 72-36 108h72" id="K"/><g id="f"><use transform="matrix(0.06172839506172839,0,0,0.06172839506172839,0,0)" xlink:href="#J"/><use transform="matrix(0.06172839506172839,0,0,0.06172839506172839,15.987654320987653,0)" xlink:href="#K"/></g><path fill="#3a414a" d="M24 0v-248h52v208h133V0H24" id="L"/><path fill="#3a414a" d="M185-48c-13 30-37 53-82 52C43 2 14-33 14-96s30-98 90-98c62 0 83 45 84 108H66c0 31 8 55 39 56 18 0 30-7 34-22zm-45-69c5-46-57-63-70-21-2 6-4 13-4 21h74" id="M"/><path fill="#3a414a" d="M195-6C206 82 75 100 31 46c-4-6-6-13-8-21l49-6c3 16 16 24 34 25 40 0 42-37 40-79-11 22-30 35-61 35-53 0-70-43-70-97 0-56 18-96 73-97 30 0 46 14 59 34l2-30h47zm-90-29c32 0 41-27 41-63 0-35-9-62-40-62-32 0-39 29-40 63 0 36 9 62 39 62" id="N"/><path fill="#3a414a" d="M88-194c31-1 46 15 58 34l-1-101h50l1 261h-48c-2-10 0-23-3-31C134-8 116 4 84 4 32 4 16-41 15-95c0-56 19-97 73-99zm17 164c33 0 40-30 41-66 1-37-9-64-41-64s-38 30-39 65c0 43 13 65 39 65" id="O"/><g id="g"><use transform="matrix(0.06172839506172839,0,0,0.06172839506172839,0,0)" xlink:href="#L"/><use transform="matrix(0.06172839506172839,0,0,0.06172839506172839,13.518518518518517,0)" xlink:href="#M"/><use transform="matrix(0.06172839506172839,0,0,0.06172839506172839,25.864197530864196,0)" xlink:href="#N"/><use transform="matrix(0.06172839506172839,0,0,0.06172839506172839,39.382716049382715,0)" xlink:href="#M"/><use transform="matrix(0.06172839506172839,0,0,0.06172839506172839,51.72839506172839,0)" xlink:href="#w"/><use transform="matrix(0.06172839506172839,0,0,0.06172839506172839,65.24691358024691,0)" xlink:href="#O"/></g><path fill="#3a414a" d="M30 0v-248h187v28H63v79h144v27H63v87h162V0H30" id="P"/><path fill="#3a414a" d="M141 0L90-78 38 0H4l68-98-65-92h35l48 74 47-74h35l-64 92 68 98h-35" id="Q"/><path fill="#3a414a" d="M100-194c63 0 86 42 84 106H49c0 40 14 67 53 68 26 1 43-12 49-29l28 8c-11 28-37 45-77 45C44 4 14-33 15-96c1-61 26-98 85-98zm52 81c6-60-76-77-97-28-3 7-6 17-6 28h103" id="R"/><path fill="#3a414a" d="M117-194c89-4 53 116 60 194h-32v-121c0-31-8-49-39-48C34-167 62-67 57 0H25l-1-190h30c1 10-1 24 2 32 11-22 29-35 61-36" id="S"/><g id="h"><use transform="matrix(0.06172839506172839,0,0,0.06172839506172839,0,0)" xlink:href="#P"/><use transform="matrix(0.06172839506172839,0,0,0.06172839506172839,14.814814814814813,0)" xlink:href="#Q"/><use transform="matrix(0.06172839506172839,0,0,0.06172839506172839,25.925925925925924,0)" xlink:href="#C"/><use transform="matrix(0.06172839506172839,0,0,0.06172839506172839,32.098765432098766,0)" xlink:href="#R"/><use transform="matrix(0.06172839506172839,0,0,0.06172839506172839,44.44444444444444,0)" xlink:href="#y"/><use transform="matrix(0.06172839506172839,0,0,0.06172839506172839,51.79012345679012,0)" xlink:href="#S"/><use transform="matrix(0.06172839506172839,0,0,0.06172839506172839,64.1358024691358,0)" xlink:href="#B"/><use transform="matrix(0.06172839506172839,0,0,0.06172839506172839,76.48148148148148,0)" xlink:href="#G"/></g><path fill="#3a414a" d="M185-189c-5-48-123-54-124 2 14 75 158 14 163 119 3 78-121 87-175 55-17-10-28-26-33-46l33-7c5 56 141 63 141-1 0-78-155-14-162-118-5-82 145-84 179-34 5 7 8 16 11 25" id="T"/><path fill="#3a414a" d="M135-143c-3-34-86-38-87 0 15 53 115 12 119 90S17 21 10-45l28-5c4 36 97 45 98 0-10-56-113-15-118-90-4-57 82-63 122-42 12 7 21 19 24 35" id="U"/><path fill="#3a414a" d="M210-169c-67 3-38 105-44 169h-31v-121c0-29-5-50-35-48C34-165 62-65 56 0H25l-1-190h30c1 10-1 24 2 32 10-44 99-50 107 0 11-21 27-35 58-36 85-2 47 119 55 194h-31v-121c0-29-5-49-35-48" id="V"/><g id="i"><use transform="matrix(0.06172839506172839,0,0,0.06172839506172839,0,0)" xlink:href="#T"/><use transform="matrix(0.06172839506172839,0,0,0.06172839506172839,14.814814814814813,0)" xlink:href="#D"/><use transform="matrix(0.06172839506172839,0,0,0.06172839506172839,25.925925925925924,0)" xlink:href="#U"/><use transform="matrix(0.06172839506172839,0,0,0.06172839506172839,37.03703703703704,0)" xlink:href="#C"/><use transform="matrix(0.06172839506172839,0,0,0.06172839506172839,43.20987654320988,0)" xlink:href="#R"/><use transform="matrix(0.06172839506172839,0,0,0.06172839506172839,55.55555555555556,0)" xlink:href="#V"/></g><path fill="#3a414a" d="M9 0v-24l116-142H16v-24h144v24L44-24h123V0H9" id="W"/><g id="j"><use transform="matrix(0.06172839506172839,0,0,0.06172839506172839,0,0)" xlink:href="#H"/><use transform="matrix(0.06172839506172839,0,0,0.06172839506172839,14.814814814814813,0)" xlink:href="#V"/><use transform="matrix(0.06172839506172839,0,0,0.06172839506172839,33.2716049382716,0)" xlink:href="#B"/><use transform="matrix(0.06172839506172839,0,0,0.06172839506172839,45.61728395061728,0)" xlink:href="#W"/><use transform="matrix(0.06172839506172839,0,0,0.06172839506172839,56.72839506172839,0)" xlink:href="#F"/><use transform="matrix(0.06172839506172839,0,0,0.06172839506172839,69.07407407407408,0)" xlink:href="#S"/></g><path fill="#3a414a" d="M108 0H70L1-190h34L89-25l56-165h34" id="X"/><path fill="#3a414a" d="M160-131c35 5 61 23 61 61C221 17 115-2 30 0v-248c76 3 177-17 177 60 0 33-19 50-47 57zm-97-11c50-1 110 9 110-42 0-47-63-36-110-37v79zm0 115c55-2 124 14 124-45 0-56-70-42-124-44v89" id="Y"/><path fill="#3a414a" d="M24-231v-30h32v30H24zM24 0v-190h32V0H24" id="Z"/><path fill="#3a414a" d="M177-190C167-65 218 103 67 71c-23-6-38-20-44-43l32-5c15 47 100 32 89-28v-30C133-14 115 1 83 1 29 1 15-40 15-95c0-56 16-97 71-98 29-1 48 16 59 35 1-10 0-23 2-32h30zM94-22c36 0 50-32 50-73 0-42-14-75-50-75-39 0-46 34-46 75s6 73 46 73" id="aa"/><g id="k"><use transform="matrix(0.06172839506172839,0,0,0.06172839506172839,0,0)" xlink:href="#P"/><use transform="matrix(0.06172839506172839,0,0,0.06172839506172839,14.814814814814813,0)" xlink:href="#X"/><use transform="matrix(0.06172839506172839,0,0,0.06172839506172839,25.925925925925924,0)" xlink:href="#R"/><use transform="matrix(0.06172839506172839,0,0,0.06172839506172839,38.2716049382716,0)" xlink:href="#S"/><use transform="matrix(0.06172839506172839,0,0,0.06172839506172839,50.61728395061728,0)" xlink:href="#C"/><use transform="matrix(0.06172839506172839,0,0,0.06172839506172839,56.79012345679012,0)" xlink:href="#Y"/><use transform="matrix(0.06172839506172839,0,0,0.06172839506172839,71.60493827160494,0)" xlink:href="#y"/><use transform="matrix(0.06172839506172839,0,0,0.06172839506172839,78.95061728395062,0)" xlink:href="#Z"/><use transform="matrix(0.06172839506172839,0,0,0.06172839506172839,83.82716049382717,0)" xlink:href="#z"/><use transform="matrix(0.06172839506172839,0,0,0.06172839506172839,96.17283950617285,0)" xlink:href="#aa"/><use transform="matrix(0.06172839506172839,0,0,0.06172839506172839,108.51851851851853,0)" xlink:href="#R"/></g><path fill="#3a414a" d="M266 0h-40l-56-210L115 0H75L2-248h35L96-30l15-64 43-154h32l59 218 59-218h35" id="ab"/><g id="l"><use transform="matrix(0.06172839506172839,0,0,0.06172839506172839,0,0)" xlink:href="#H"/><use transform="matrix(0.06172839506172839,0,0,0.06172839506172839,14.012345679012345,0)" xlink:href="#ab"/><use transform="matrix(0.06172839506172839,0,0,0.06172839506172839,34.938271604938265,0)" xlink:href="#T"/></g><path fill="#3a414a" d="M30 0v-248h33v221h125V0H30" id="ac"/><path fill="#3a414a" d="M115-194c53 0 69 39 70 98 0 66-23 100-70 100C84 3 66-7 56-30L54 0H23l1-261h32v101c10-23 28-34 59-34zm-8 174c40 0 45-34 45-75 0-40-5-75-45-74-42 0-51 32-51 76 0 43 10 73 51 73" id="ad"/><g id="m"><use transform="matrix(0.06172839506172839,0,0,0.06172839506172839,0,0)" xlink:href="#ac"/><use transform="matrix(0.06172839506172839,0,0,0.06172839506172839,12.345679012345679,0)" xlink:href="#B"/><use transform="matrix(0.06172839506172839,0,0,0.06172839506172839,24.691358024691358,0)" xlink:href="#V"/><use transform="matrix(0.06172839506172839,0,0,0.06172839506172839,43.148148148148145,0)" xlink:href="#ad"/><use transform="matrix(0.06172839506172839,0,0,0.06172839506172839,55.49382716049382,0)" xlink:href="#z"/><use transform="matrix(0.06172839506172839,0,0,0.06172839506172839,67.8395061728395,0)" xlink:href="#B"/></g><path fill="#3a414a" d="M96-169c-40 0-48 33-48 73s9 75 48 75c24 0 41-14 43-38l32 2c-6 37-31 61-74 61-59 0-76-41-82-99-10-93 101-131 147-64 4 7 5 14 7 22l-32 3c-4-21-16-35-41-35" id="ae"/><g id="n"><use transform="matrix(0.06172839506172839,0,0,0.06172839506172839,0,0)" xlink:href="#T"/><use transform="matrix(0.06172839506172839,0,0,0.06172839506172839,14.814814814814813,0)" xlink:href="#R"/><use transform="matrix(0.06172839506172839,0,0,0.06172839506172839,27.160493827160494,0)" xlink:href="#ae"/><use transform="matrix(0.06172839506172839,0,0,0.06172839506172839,38.27160493827161,0)" xlink:href="#y"/><use transform="matrix(0.06172839506172839,0,0,0.06172839506172839,45.617283950617285,0)" xlink:href="#R"/><use transform="matrix(0.06172839506172839,0,0,0.06172839506172839,57.96296296296296,0)" xlink:href="#C"/><use transform="matrix(0.06172839506172839,0,0,0.06172839506172839,64.1358024691358,0)" xlink:href="#U"/></g><g id="o"><use transform="matrix(0.06172839506172839,0,0,0.06172839506172839,0,0)" xlink:href="#T"/><use transform="matrix(0.06172839506172839,0,0,0.06172839506172839,14.814814814814813,0)" xlink:href="#x"/></g><path fill="#3a414a" d="M84 4C-5 8 30-112 23-190h32v120c0 31 7 50 39 49 72-2 45-101 50-169h31l1 190h-30c-1-10 1-25-2-33-11 22-28 36-60 37" id="af"/><path fill="#3a414a" d="M143 0L79-87 56-68V0H24v-261h32v163l83-92h37l-77 82L181 0h-38" id="ag"/><g id="p"><use transform="matrix(0.06172839506172839,0,0,0.06172839506172839,0,0)" xlink:href="#Y"/><use transform="matrix(0.06172839506172839,0,0,0.06172839506172839,14.814814814814813,0)" xlink:href="#af"/><use transform="matrix(0.06172839506172839,0,0,0.06172839506172839,27.160493827160494,0)" xlink:href="#ae"/><use transform="matrix(0.06172839506172839,0,0,0.06172839506172839,38.27160493827161,0)" xlink:href="#ag"/><use transform="matrix(0.06172839506172839,0,0,0.06172839506172839,49.38271604938272,0)" xlink:href="#R"/><use transform="matrix(0.06172839506172839,0,0,0.06172839506172839,61.7283950617284,0)" xlink:href="#C"/></g></defs></g></svg>